{
  "accessors": [
    {
      "bufferView": 2,
      "componentType": 5126,
      "count": 32513,
      "max": [
        8.67281723022461,
        8.617997169494629,
        8.136683464050293
      ],
      "min": [
        -9.795912742614746,
        -8.652003288269043,
        -1.1467150449752808
      ],
      "type": "VEC3"
    },
    {
      "bufferView": 2,
      "byteOffset": 390156,
      "componentType": 5126,
      "count": 32513,
      "max": [
        0.9999688863754272,
        0.9999063611030579,
        0.9999731183052063
      ],
      "min": [
        -0.9999436140060425,
        -0.9999203681945801,
        -0.9973963499069214
      ],
      "type": "VEC3"
    },
    {
      "bufferView": 1,
      "componentType": 5126,
      "count": 32513,
      "max": [
        1.0,
        1.0
      ],
      "min": [
        0.0,
        0.0
      ],
      "type": "VEC2"
    },
    {
      "bufferView": 0,
      "componentType": 5125,
      "count": 129363,
      "type": "SCALAR"
    },
    {
      "bufferView": 2,
      "byteOffset": 780312,
      "componentType": 5126,
      "count": 25350,
      "max": [
        8.67281723022461,
        8.617997169494629,
        7.948770999908447
      ],
      "min": [
        -9.795912742614746,
        -8.652003288269043,
        -1.1467150449752808
      ],
      "type": "VEC3"
    },
    {
      "bufferView": 2,
      "byteOffset": 1084512,
      "componentType": 5126,
      "count": 25350,
      "max": [
        0.9489508867263794,
        0.9787683486938477,
        0.999999463558197
      ],
      "min": [
        -0.9926021099090576,
        -0.9690843820571899,
        -0.7864456176757813
      ],
      "type": "VEC3"
    },
    {
      "bufferView": 1,
      "byteOffset": 260104,
      "componentType": 5126,
      "count": 25350,
      "max": [
        0.5,
        1.0
      ],
      "min": [
        0.0,
        0.0
      ],
      "type": "VEC2"
    },
    {
      "bufferView": 0,
      "byteOffset": 517452,
      "componentType": 5125,
      "count": 96720,
      "type": "SCALAR"
    },
    {
      "bufferView": 2,
      "byteOffset": 1388712,
      "componentType": 5126,
      "count": 338,
      "max": [
        5.92648983001709,
        6.080383777618408,
        8.763150215148926
      ],
      "min": [
        -6.7356719970703125,
        -4.204493999481201,
        4.862479209899902
      ],
      "type": "VEC3"
    },
    {
      "bufferView": 2,
      "byteOffset": 1392768,
      "componentType": 5126,
      "count": 338,
      "max": [
        0.992018461227417,
        0.9914394617080688,
        0.9886563420295715
      ],
      "min": [
        -0.992018461227417,
        -0.9914392232894897,
        -0.9886561036109924
      ],
      "type": "VEC3"
    },
    {
      "bufferView": 1,
      "byteOffset": 462904,
      "componentType": 5126,
      "count": 338,
      "max": [
        1.0,
        1.0
      ],
      "min": [
        0.0,
        0.0
      ],
      "type": "VEC2"
    },
    {
      "bufferView": 0,
      "byteOffset": 904332,
      "componentType": 5125,
      "count": 936,
      "type": "SCALAR"
    },
    {
      "bufferView": 2,
      "byteOffset": 1396824,
      "componentType": 5126,
      "count": 338,
      "max": [
        6.204080104827881,
        6.661521911621094,
        9.046228408813477
      ],
      "min": [
        -6.606342792510986,
        -4.064910888671875,
        4.661136150360107
      ],
      "type": "VEC3"
    },
    {
      "bufferView": 2,
      "byteOffset": 1400880,
      "componentType": 5126,
      "count": 338,
      "max": [
        0.996650755405426,
        0.9964649081230164,
        0.9930376410484314
      ],
      "min": [
        -0.9966505765914917,
        -0.9964646697044373,
        -0.9930375218391418
      ],
      "type": "VEC3"
    },
    {
      "bufferView": 1,
      "byteOffset": 465608,
      "componentType": 5126,
      "count": 338,
      "max": [
        1.0,
        1.0
      ],
      "min": [
        0.0,
        0.0
      ],
      "type": "VEC2"
    },
    {
      "bufferView": 0,
      "byteOffset": 908076,
      "componentType": 5125,
      "count": 936,
      "type": "SCALAR"
    },
    {
      "bufferView": 2,
      "byteOffset": 1404936,
      "componentType": 5126,
      "count": 338,
      "max": [
        5.344823837280273,
        5.82918119430542,
        8.450950622558594
      ],
      "min": [
        -6.562108039855957,
        -4.0355000495910645,
        3.7351160049438477
      ],
      "type": "VEC3"
    },
    {
      "bufferView": 2,
      "byteOffset": 1408992,
      "componentType": 5126,
      "count": 338,
      "max": [
        0.9685527682304382,
        0.9867749810218811,
        0.9987590909004211
      ],
      "min": [
        -0.9685527682304382,
        -0.9867749810218811,
        -0.9987590909004211
      ],
      "type": "VEC3"
    },
    {
      "bufferView": 1,
      "byteOffset": 468312,
      "componentType": 5126,
      "count": 338,
      "max": [
        1.0,
        1.0
      ],
      "min": [
        0.0,
        0.0
      ],
      "type": "VEC2"
    },
    {
      "bufferView": 0,
      "byteOffset": 911820,
      "componentType": 5125,
      "count": 936,
      "type": "SCALAR"
    }
  ],
  "asset": {
    "extras": {
      "author": "SCADL & Co (https://sketchfab.com/scadl)",
      "license": "CC-BY-4.0 (http://creativecommons.org/licenses/by/4.0/)",
      "source": "https://sketchfab.com/3d-models/tulpis-lowpoly-6fc1b0448f814a5cabaf96cdeddaf76f",
      "title": "Tulpis LowPoly"
    },
    "generator": "Sketchfab-11.8.0",
    "version": "2.0"
  },
  "bufferViews": [
    {
      "buffer": 0,
      "byteLength": 915564,
      "name": "floatBufferViews",
      "target": 34963
    },
    {
      "buffer": 0,
      "byteLength": 471016,
      "byteOffset": 915564,
      "byteStride": 8,
      "name": "floatBufferViews",
      "target": 34962
    },
    {
      "buffer": 0,
      "byteLength": 1413048,
      "byteOffset": 1386580,
      "byteStride": 12,
      "name": "floatBufferViews",
      "target": 34962
    }
  ],
  "buffers": [
    {
      "byteLength": 2799628,
      "uri": "scene.bin"
    }
  ],
  "materials": [
    {
      "doubleSided": true,
      "name": "01___Default",
      "pbrMetallicRoughness": {
        "baseColorFactor": [
          0.09498062749152535,
          0.2511527938015675,
          0.05312879535809183,
          1.0
        ],
        "metallicFactor": 0.0,
        "roughnessFactor": 0.55
      }
    },
    {
      "doubleSided": true,
      "name": "Material__1",
      "pbrMetallicRoughness": {
        "baseColorFactor": [
          0.9725489999999998,
          0.9490199999999993,
          0.3019609999999998,
          1.0
        ],
        "metallicFactor": 0.0
      }
    },
    {
      "doubleSided": true,
      "name": "Material__2",
      "pbrMetallicRoughness": {
        "baseColorFactor": [
          1.0,
          0.6313729999999997,
          0.3490199999999997,
          1.0
        ],
        "metallicFactor": 0.0
      }
    },
    {
      "doubleSided": true,
      "name": "Material__3",
      "pbrMetallicRoughness": {
        "baseColorFactor": [
          1.0,
          0.109804,
          0.109804,
          1.0
        ],
        "metallicFactor": 0.0
      }
    }
  ],
  "meshes": [
    {
      "name": "Object_0",
      "primitives": [
        {
          "attributes": {
            "NORMAL": 1,
            "POSITION": 0,
            "TEXCOORD_0": 2
          },
          "indices": 3,
          "material": 0,
          "mode": 4
        }
      ]
    },
    {
      "name": "Object_1",
      "primitives": [
        {
          "attributes": {
            "NORMAL": 5,
            "POSITION": 4,
            "TEXCOORD_0": 6
          },
          "indices": 7,
          "material": 0,
          "mode": 4
        }
      ]
    },
    {
      "name": "Object_2",
      "primitives": [
        {
          "attributes": {
            "NORMAL": 9,
            "POSITION": 8,
            "TEXCOORD_0": 10
          },
          "indices": 11,
          "material": 1,
          "mode": 4
        }
      ]
    },
    {
      "name": "Object_3",
      "primitives": [
        {
          "attributes": {
            "NORMAL": 13,
            "POSITION": 12,
            "TEXCOORD_0": 14
          },
          "indices": 15,
          "material": 2,
          "mode": 4
        }
      ]
    },
    {
      "name": "Object_4",
      "primitives": [
        {
          "attributes": {
            "NORMAL": 17,
            "POSITION": 16,
            "TEXCOORD_0": 18
          },
          "indices": 19,
          "material": 3,
          "mode": 4
        }
      ]
    }
  ],
  "nodes": [
    {
      "children": [
        1
      ],
      "matrix": [
        1.0,
        0.0,
        0.0,
        0.0,
        0.0,
        2.220446049250313e-16,
        -1.0,
        0.0,
        0.0,
        1.0,
        2.220446049250313e-16,
        0.0,
        0.0,
        0.0,
        0.0,
        1.0
      ],
      "name": "Sketchfab_model"
    },
    {
      "children": [
        2,
        3,
        4,
        5,
        6
      ],
      "name": "Tulpis_LowPoly.obj.cleaner.materialmerger.gles"
    },
    {
      "mesh": 0,
      "name": "Object_2"
    },
    {
      "mesh": 1,
      "name": "Object_3"
    },
    {
      "mesh": 2,
      "name": "Object_4"
    },
    {
      "mesh": 3,
      "name": "Object_5"
    },
    {
      "mesh": 4,
      "name": "Object_6"
    }
  ],
  "scene": 0,
  "scenes": [
    {
      "name": "Sketchfab_Scene",
      "nodes": [
        0
      ]
    }
  ]
}
